<svg xmlns="http://www.w3.org/2000/svg" xmlns:xlink="http://www.w3.org/1999/xlink"><defs>
<clipPath id="clip0">
<rect width="18" height="18" fill="white"/>
</clipPath>

<clipPath id="clip0">
<rect width="40" height="40" fill="white"/>
</clipPath>

<clipPath id="clip0">
<rect width="14" height="13.3636"/>
</clipPath>

<clipPath id="clip0">
<rect width="20" height="20"/>
</clipPath>

<clipPath id="clip0">
<rect width="14" height="13.2222" transform="translate(0 0.930054)"/>
</clipPath>

<clipPath id="clip0">
<rect width="14" height="13.3636"/>
</clipPath>
<clipPath id="clip1">
<rect width="14" height="13.3636"/>
</clipPath>
</defs><symbol id="arrow" viewBox="0 0 18 18">
<g clip-path="url(#clip0)">
<path d="M8.99995 14.1303C8.67735 14.1303 8.3548 14.0071 8.10885 13.7613L0.369254 6.02158C-0.123085 5.52924 -0.123085 4.731 0.369254 4.23886C0.861394 3.74672 1.65948 3.74672 2.15186 4.23886L8.99995 11.0873L15.8481 4.2391C16.3404 3.74696 17.1384 3.74696 17.6305 4.2391C18.1231 4.73124 18.1231 5.52948 17.6305 6.02182L9.89105 13.7615C9.64498 14.0074 9.32243 14.1303 8.99995 14.1303Z"/>
</g>

</symbol><symbol id="chef" viewBox="0 0 40 40">
<g clip-path="url(#clip0)">
<path d="M36.805 26.6356C35.9004 27.2657 34.8609 27.6752 33.7696 27.8315C32.6784 27.9878 31.5657 27.8865 30.5206 27.5356C30.4259 27.5019 30.3245 27.4915 30.225 27.5053C30.1254 27.5191 30.0306 27.5567 29.9487 27.615L27.1362 29.6093L27.86 30.6287L30.4119 28.8162C31.6046 29.1646 32.8599 29.2426 34.0866 29.0444C35.3132 28.8462 36.4802 28.3769 37.5025 27.6706C37.8708 27.4217 38.2199 27.1455 38.5469 26.8443L37.6994 25.9256C37.4196 26.1846 37.1206 26.4219 36.805 26.6356Z" fill="#333333"/>
<path d="M30.5112 17.3081C29.6167 17.8797 28.9001 18.6903 28.4427 19.6483C27.9853 20.6062 27.8053 21.6731 27.9231 22.7281L20 27.8069L12.0756 22.7312C12.196 21.6759 12.0169 20.608 11.5588 19.6497C11.1006 18.6914 10.3819 17.8814 9.485 17.3125C8.29437 16.4918 6.84655 16.1308 5.41 16.2962C4.73237 16.3626 4.07776 16.5777 3.49288 16.9262C2.90801 17.2748 2.4073 17.7482 2.02652 18.3126C1.64574 18.8771 1.39427 19.5186 1.29008 20.1914C1.18588 20.8643 1.23152 21.5518 1.42375 22.205C1.80882 23.5982 2.68621 24.8045 3.89312 25.6C4.75729 26.2195 5.77857 26.5828 6.83981 26.6484C7.90105 26.7139 8.95928 26.479 9.89312 25.9706L16.0437 30.3375L10.1906 34.0906C9.91396 34.2664 9.67539 34.4959 9.48906 34.7656C9.30273 35.0353 9.17242 35.3396 9.10586 35.6606C9.0393 35.9816 9.03785 36.3126 9.10157 36.6342C9.1653 36.9557 9.29292 37.2612 9.47687 37.5325C9.66011 37.8032 9.8956 38.0346 10.1695 38.213C10.4434 38.3915 10.7502 38.5134 11.0719 38.5716C11.3936 38.6299 11.7237 38.6232 12.0428 38.5521C12.3618 38.481 12.6635 38.3468 12.93 38.1575L20 33.1437L27.07 38.1612C27.3368 38.3564 27.6403 38.4957 27.9622 38.5708C28.2841 38.6459 28.6179 38.6553 28.9435 38.5983C29.2692 38.5413 29.5799 38.4192 29.8573 38.2393C30.1346 38.0593 30.3727 37.8253 30.5574 37.5511C30.7421 37.2769 30.8695 36.9683 30.9321 36.6437C30.9946 36.3191 30.991 35.9852 30.9215 35.662C30.8519 35.3388 30.7179 35.033 30.5273 34.7629C30.3367 34.4928 30.0936 34.2639 29.8125 34.09L23.9525 30.34L30.1075 25.9712C31.0412 26.4798 32.0994 26.7149 33.1606 26.6496C34.2219 26.5843 35.2432 26.2211 36.1075 25.6019C38.6762 23.8681 39.515 20.5969 37.9756 18.3094C36.4362 16.0219 33.0856 15.5744 30.5112 17.3081ZM12.2062 37.1406C11.9392 37.3204 11.6125 37.3886 11.2958 37.3308C10.9791 37.273 10.6976 37.0937 10.5112 36.8312C10.4211 36.6982 10.3585 36.5484 10.3273 36.3907C10.2961 36.233 10.2968 36.0707 10.3295 35.9133C10.3622 35.7559 10.4262 35.6067 10.5176 35.4745C10.6091 35.3423 10.7261 35.2298 10.8619 35.1437L17.1425 31.1162L18.9169 32.375L12.2062 37.1406ZM29.6687 35.9137C29.7177 36.1509 29.6942 36.3973 29.6012 36.6208C29.5082 36.8444 29.3501 37.0348 29.1474 37.1673C28.9447 37.2998 28.7069 37.3682 28.4648 37.3637C28.2227 37.3592 27.9876 37.2819 27.79 37.1419L10.2656 24.7044C10.1588 24.6286 10.0308 24.5883 9.89981 24.5892C9.76882 24.5901 9.64143 24.6321 9.53562 24.7094C8.79522 25.1926 7.92467 25.4376 7.04092 25.4116C6.15717 25.3855 5.30255 25.0897 4.59187 24.5637C3.63568 23.9365 2.93932 22.9839 2.63187 21.8825C2.48476 21.4013 2.44707 20.8934 2.52158 20.3958C2.59609 19.8982 2.78091 19.4236 3.0625 19.0067C3.3441 18.5897 3.71535 18.241 4.1491 17.9861C4.58284 17.7311 5.0681 17.5763 5.56937 17.5331C6.70565 17.4056 7.84964 17.6942 8.78937 18.3456C9.54269 18.808 10.1365 19.4897 10.4911 20.2994C10.8457 21.109 10.9441 22.0078 10.7731 22.875C10.741 23.0021 10.7497 23.1361 10.7979 23.258C10.8461 23.3799 10.9315 23.4836 11.0419 23.5544L29.1381 35.1431C29.2739 35.2293 29.3908 35.3419 29.482 35.4743C29.5732 35.6067 29.6367 35.7562 29.6687 35.9137ZM35.4062 24.5625C34.6953 25.0883 33.8405 25.384 32.9567 25.4098C32.0728 25.4356 31.2022 25.1903 30.4619 24.7069C30.3561 24.6296 30.2287 24.5876 30.0977 24.5867C29.9667 24.5858 29.8387 24.6261 29.7319 24.7019L22.8175 29.6106L21.16 28.5481L28.9562 23.5481C29.0664 23.4774 29.1516 23.374 29.1998 23.2523C29.248 23.1307 29.2568 22.9969 29.225 22.87C29.0574 22.0026 29.1576 21.1048 29.5124 20.2958C29.8672 19.4868 30.4597 18.8049 31.2112 18.3406C33.2112 16.9925 35.7825 17.29 36.9381 19.0019C38.0937 20.7137 37.4056 23.2144 35.4062 24.5625Z" fill="#333333"/>
<path d="M8.07933 2.39562L7.38746 1.35437C5.8777 2.35475 4.74547 3.83088 4.17057 5.54832C3.59567 7.26577 3.61108 9.12606 4.21433 10.8337L5.39246 10.4162C4.88235 8.97106 4.86976 7.39686 5.35668 5.94369C5.8436 4.49052 6.80211 3.24171 8.07996 2.39562H8.07933Z" fill="#333333"/>
<path d="M6.7187 12.6675C6.41776 12.3261 6.15107 11.956 5.92245 11.5625L4.84058 12.1875C5.1105 12.6527 5.42556 13.0902 5.7812 13.4937L6.7187 12.6675Z" fill="#333333"/>
<path d="M26.8625 22.625L28.6419 13.7288C30.0886 13.6029 31.4305 12.9224 32.3869 11.8297C33.3433 10.7371 33.8401 9.31686 33.7734 7.86627C33.7066 6.41569 33.0814 5.04712 32.0287 4.04694C30.9759 3.04675 29.5771 2.49244 28.125 2.5C26.8612 2.49553 25.6337 2.92212 24.645 3.70938C24.1301 2.9517 23.4376 2.33149 22.628 1.90282C21.8183 1.47416 20.9161 1.25006 20 1.25006C19.0839 1.25006 18.1817 1.47416 17.3721 1.90282C16.5625 2.33149 15.87 2.9517 15.355 3.70938C14.3664 2.92212 13.1388 2.49553 11.875 2.5C10.4279 2.49987 9.03637 3.05748 7.98977 4.05691C6.94318 5.05633 6.32203 6.42068 6.25547 7.86629C6.18891 9.3119 6.68206 10.7276 7.6324 11.8189C8.58273 12.9103 9.91713 13.5934 11.3582 13.7263L13.1375 22.625L14.3625 22.38L14.0125 20.625H25.9875L25.6375 22.375L26.8625 22.625ZM23.8457 19.375L24.3688 15.7138L23.1313 15.5363L22.5832 19.375H20.625V12.5H19.375V19.375H17.4169L16.8688 15.5363L15.6313 15.7138L16.1544 19.375H13.7625L12.4875 13C12.4587 12.8588 12.382 12.732 12.2704 12.6408C12.1588 12.5497 12.0191 12.5 11.875 12.5C10.7147 12.5 9.60192 12.0391 8.78144 11.2186C7.96097 10.3981 7.50004 9.28533 7.50004 8.125C7.50004 6.96468 7.96097 5.85188 8.78144 5.03141C9.60192 4.21094 10.7147 3.75 11.875 3.75C12.4706 3.74848 13.0602 3.86979 13.6068 4.10638C14.1534 4.34296 14.6454 4.68972 15.0519 5.125C15.1214 5.19846 15.2076 5.25397 15.3033 5.28677C15.3989 5.31957 15.5011 5.32868 15.601 5.31332C15.7009 5.29795 15.7956 5.25857 15.877 5.19856C15.9584 5.13855 16.024 5.05969 16.0682 4.96875C16.4252 4.22933 16.9835 3.60557 17.679 3.16908C18.3745 2.73259 19.1789 2.50105 20 2.50105C20.8211 2.50105 21.6256 2.73259 22.3211 3.16908C23.0166 3.60557 23.5749 4.22933 23.9319 4.96875C23.9761 5.05969 24.0417 5.13855 24.1231 5.19856C24.2044 5.25857 24.2991 5.29795 24.3991 5.31332C24.499 5.32868 24.6012 5.31957 24.6968 5.28677C24.7924 5.25397 24.8787 5.19846 24.9482 5.125C25.3547 4.68972 25.8467 4.34296 26.3933 4.10638C26.9399 3.86979 27.5294 3.74848 28.125 3.75C29.2854 3.75 30.3982 4.21094 31.2186 5.03141C32.0391 5.85188 32.5 6.96468 32.5 8.125C32.5 9.28533 32.0391 10.3981 31.2186 11.2186C30.3982 12.0391 29.2854 12.5 28.125 12.5C27.981 12.5 27.8413 12.5497 27.7297 12.6408C27.6181 12.732 27.5414 12.8588 27.5125 13L26.2375 19.375H23.8457Z" fill="#333333"/>
<path d="M210.592 -21.656L222.592 -97.128C222.757 -98.1672 222.716 -99.2287 222.47 -100.252C222.225 -101.275 221.779 -102.24 221.16 -103.091C220.541 -103.941 219.761 -104.662 218.863 -105.21C217.965 -105.759 216.968 -106.125 215.928 -106.288L140.424 -118.152L105.84 -186.32C105.366 -187.26 104.71 -188.098 103.911 -188.784C103.112 -189.471 102.185 -189.993 101.184 -190.32C99.1591 -190.967 96.9608 -190.792 95.064 -189.832L27 -154.992L-41.064 -189.824C-42.0013 -190.303 -43.0239 -190.593 -44.0733 -190.676C-45.1227 -190.759 -46.1782 -190.634 -47.1793 -190.309C-48.1804 -189.983 -49.1074 -189.463 -49.9072 -188.779C-50.7069 -188.094 -51.3638 -187.259 -51.84 -186.32L-86.424 -118.16L-161.936 -106.296C-162.975 -106.132 -163.971 -105.766 -164.868 -105.216C-165.765 -104.667 -166.545 -103.947 -167.163 -103.096C-167.781 -102.245 -168.226 -101.281 -168.471 -100.258C-168.716 -99.2356 -168.757 -98.1746 -168.592 -97.136L-156.592 -21.664L-210.664 32.336C-211.409 33.0791 -212 33.962 -212.403 34.9339C-212.807 35.9058 -213.014 36.9477 -213.014 38C-213.014 39.0523 -212.807 40.0942 -212.403 41.0661C-212 42.0381 -211.409 42.9209 -210.664 43.664L-156.6 97.656L-168.6 173.128C-168.765 174.167 -168.724 175.229 -168.478 176.252C-168.232 177.275 -167.787 178.24 -167.168 179.091C-166.549 179.941 -165.769 180.662 -164.871 181.211C-163.973 181.759 -162.976 182.125 -161.936 182.288L-86.432 194.152L-51.84 262.32C-51.3655 263.26 -50.7099 264.098 -49.9109 264.784C-49.1119 265.471 -48.1852 265.993 -47.184 266.32C-46.3846 266.574 -45.5508 266.704 -44.712 266.704C-43.4444 266.704 -42.1947 266.405 -41.064 265.832L27 230.992L95.064 265.824C96.0013 266.303 97.024 266.593 98.0734 266.676C99.1227 266.759 100.178 266.634 101.179 266.309C102.18 265.983 103.107 265.463 103.907 264.779C104.707 264.094 105.364 263.259 105.84 262.32L140.424 194.16L215.936 182.296C216.975 182.132 217.971 181.766 218.868 181.217C219.765 180.667 220.545 179.947 221.163 179.096C221.781 178.245 222.226 177.281 222.471 176.258C222.716 175.236 222.757 174.175 222.592 173.136L210.592 97.664L264.664 43.664C265.409 42.9209 266 42.0381 266.403 41.0661C266.807 40.0942 267.014 39.0523 267.014 38C267.014 36.9477 266.807 35.9058 266.403 34.9339C266 33.962 265.409 33.0791 264.664 32.336L210.592 -21.656ZM196.392 89.2C195.497 90.0937 194.827 91.1868 194.436 92.3897C194.045 93.5926 193.945 94.871 194.144 96.12L205.528 167.704L133.896 178.96C132.646 179.157 131.461 179.648 130.437 180.392C129.413 181.136 128.581 182.112 128.008 183.24L95.208 247.896L30.648 214.856C29.519 214.278 28.2686 213.976 27 213.976C25.7314 213.976 24.481 214.278 23.352 214.856L-41.208 247.896L-74.008 183.24C-74.5818 182.111 -75.4155 181.134 -76.4405 180.39C-77.4655 179.646 -78.6526 179.156 -79.904 178.96L-151.536 167.728L-140.144 96.144C-139.945 94.895 -140.045 93.6166 -140.436 92.4137C-140.827 91.2108 -141.497 90.1176 -142.392 89.224L-193.68 38L-142.392 -13.2C-141.497 -14.0936 -140.827 -15.1867 -140.436 -16.3896C-140.045 -17.5925 -139.945 -18.8709 -140.144 -20.12L-151.528 -91.728L-79.896 -102.984C-78.646 -103.181 -77.4606 -103.671 -76.437 -104.416C-75.4134 -105.16 -74.581 -106.136 -74.008 -107.264L-41.208 -171.92L23.352 -138.88C24.481 -138.301 25.7314 -138 27 -138C28.2686 -138 29.519 -138.301 30.648 -138.88L95.208 -171.92L128.008 -107.264C128.582 -106.135 129.415 -105.158 130.441 -104.414C131.466 -103.67 132.653 -103.18 133.904 -102.984L205.536 -91.728L194.144 -20.144C193.945 -18.8949 194.045 -17.6165 194.436 -16.4136C194.827 -15.2107 195.497 -14.1176 196.392 -13.224L247.68 38L196.392 89.2Z" fill="black"/>
<path d="M131 -26H59V-66C58.9873 -76.6048 54.7689 -86.7715 47.2702 -94.2702C39.7715 -101.769 29.6048 -105.987 19 -106C17.2166 -106 15.4843 -105.404 14.0783 -104.307C12.6724 -103.21 11.6734 -101.674 11.24 -99.944L-8.2 -22.12C-9.06588 -18.6559 -11.0656 -15.581 -13.881 -13.3847C-16.6963 -11.1884 -20.1653 -9.99697 -23.736 -10H-29V-18C-29 -20.1217 -29.8428 -22.1566 -31.3431 -23.6569C-32.8434 -25.1572 -34.8783 -26 -37 -26H-101C-103.122 -26 -105.157 -25.1572 -106.657 -23.6569C-108.157 -22.1566 -109 -20.1217 -109 -18V110C-109 112.122 -108.157 114.157 -106.657 115.657C-105.157 117.157 -103.122 118 -101 118H-37C-34.8783 118 -32.8434 117.157 -31.3431 115.657C-29.8428 114.157 -29 112.122 -29 110V102H-6.864C14.851 112.502 38.6549 117.971 62.776 118H99C105.365 118 111.47 115.471 115.971 110.971C120.471 106.47 123 100.365 123 94C122.976 89.8656 121.873 85.809 119.8 82.232C124.562 79.2669 128.121 74.7139 129.85 69.3778C131.579 64.0416 131.366 58.266 129.248 53.072C132.789 52.1569 136.07 50.4344 138.834 48.0394C141.598 45.6443 143.77 42.6418 145.179 39.2671C146.589 35.8924 147.198 32.2371 146.958 28.5877C146.719 24.9382 145.638 21.3938 143.8 18.232C148.203 15.4648 151.586 11.3397 153.438 6.47984C155.29 1.61999 155.509 -3.71051 154.064 -8.70619C152.618 -13.7019 149.586 -18.0913 145.425 -21.2112C141.264 -24.3312 136.201 -26.0121 131 -26ZM-45 102H-93V-10H-45V102ZM123 38H83V54H107C109.122 54 111.157 54.8428 112.657 56.3431C114.157 57.8434 115 59.8783 115 62C115 64.1217 114.157 66.1566 112.657 67.6569C111.157 69.1572 109.122 70 107 70H75V86H99C101.122 86 103.157 86.8428 104.657 88.3431C106.157 89.8434 107 91.8783 107 94C107 96.1217 106.157 98.1566 104.657 99.6569C103.157 101.157 101.122 102 99 102H62.776C40.4888 101.963 18.5136 96.7604 -1.424 86.8C-2.53805 86.2602 -3.76216 85.9864 -5 86H-29V6H-23.736C-16.5988 6.0007 -9.66617 3.61535 -4.04044 -0.77681C1.5853 -5.16897 5.58122 -11.3158 7.312 -18.24L25.056 -89.2C30.1911 -87.8609 34.7375 -84.8577 37.9842 -80.6599C41.2309 -76.4622 42.9948 -71.3068 43 -66V-18C43 -15.8783 43.8428 -13.8434 45.3431 -12.3431C46.8434 -10.8428 48.8783 -10 51 -10H131C133.122 -10 135.157 -9.15715 136.657 -7.65686C138.157 -6.15657 139 -4.12173 139 -2C139 0.121735 138.157 2.15657 136.657 3.65686C135.157 5.15715 133.122 6 131 6H91V22H123C125.122 22 127.157 22.8428 128.657 24.3431C130.157 25.8434 131 27.8783 131 30C131 32.1217 130.157 34.1566 128.657 35.6569C127.157 37.1572 125.122 38 123 38Z" fill="black"/>
</g>

</symbol><symbol id="clock" viewBox="0 0 14 14">
<g clip-path="url(#clip0)">
<path d="M7 0C3.14005 0 0 2.99732 0 6.68182C0 10.3663 3.14005 13.3636 7 13.3636C10.86 13.3636 14 10.3663 14 6.68182C14 2.99732 10.86 0 7 0ZM10.3291 10.1379C10.2153 10.2465 10.066 10.3012 9.9167 10.3012C9.76738 10.3012 9.61795 10.2465 9.5043 10.1379L6.5876 7.35391C6.47791 7.24982 6.4167 7.1083 6.4167 6.96026V3.34091C6.4167 3.033 6.67796 2.78412 7 2.78412C7.32204 2.78412 7.5833 3.033 7.5833 3.34091V6.72974L10.3291 9.35063C10.5571 9.56841 10.5571 9.92026 10.3291 10.1379Z"/>
</g>

</symbol><symbol id="diet" viewBox="0 0 74 74">
<g opacity="0.3">
<path d="M28.6121 28.7424C27.9888 28.0601 27.1012 27.6605 26.1772 27.6462C24.3187 27.6223 22.7812 29.104 22.7497 30.9611C22.7396 31.5598 23.2166 32.0532 23.8151 32.0633C23.8215 32.0634 23.8276 32.0634 23.8339 32.0634C24.4241 32.0634 24.9074 31.5901 24.9173 30.9977C24.9285 30.3344 25.4736 29.8023 26.1432 29.8138C26.4775 29.819 26.7858 29.9578 27.0114 30.2046C27.4153 30.6468 28.1011 30.6777 28.5429 30.2739C28.9849 29.8702 29.0159 29.1844 28.6121 28.7424Z" fill="#333333"/>
<path d="M34.3791 32.2752C34.0468 31.4941 33.4 30.8777 32.6041 30.5839C31.0036 29.9935 29.2193 30.814 28.6263 32.4126C28.4181 32.974 28.7044 33.5978 29.2656 33.806C29.3899 33.8521 29.5172 33.874 29.6424 33.874C30.0828 33.874 30.4967 33.6037 30.6589 33.1666C30.8369 32.6865 31.3736 32.4408 31.8534 32.6179C32.0946 32.7069 32.2831 32.8865 32.3838 33.1236C32.6181 33.6744 33.2549 33.9314 33.8056 33.6969C34.3567 33.4626 34.6132 32.8261 34.3791 32.2752Z" fill="#333333"/>
<path d="M41.3656 22.6747C40.9418 22.2516 40.2554 22.2525 39.8327 22.6763L38.8108 23.7001C38.3879 24.1239 38.3887 24.8103 38.8124 25.233C39.0239 25.4442 39.3009 25.5497 39.578 25.5497C39.8558 25.5497 40.1336 25.4436 40.3453 25.2314L41.3672 24.2076C41.7901 23.7838 41.7893 23.0974 41.3656 22.6747Z" fill="#333333"/>
<path d="M34.6217 36.6687H33.177C32.5782 36.6687 32.093 37.154 32.093 37.7527C32.093 38.3513 32.5782 38.8367 33.177 38.8367H34.6217C35.2205 38.8367 35.7057 38.3513 35.7057 37.7527C35.7057 37.154 35.2205 36.6687 34.6217 36.6687Z" fill="#333333"/>
<path d="M45.699 36.6687H44.2541C43.6554 36.6687 43.1702 37.154 43.1702 37.7527C43.1702 38.3513 43.6555 38.8367 44.2541 38.8367H45.699C46.2977 38.8367 46.783 38.3513 46.783 37.7527C46.783 37.154 46.2977 36.6687 45.699 36.6687Z" fill="#333333"/>
<path d="M73.9652 56.214L73.6829 54.6904C73.503 53.7168 72.6528 53.0102 71.6615 53.0102C71.537 53.0102 71.4116 53.0216 71.2882 53.0443L65.5416 54.1L68.144 52.3603C68.8261 51.9044 69.1708 51.089 69.0221 50.28C68.9807 50.0585 68.9033 49.8459 68.7911 49.6469L68.0036 48.2523C67.7337 47.7732 67.2735 47.4172 66.7424 47.2761C66.4822 47.2067 66.2102 47.1913 65.9449 47.2258C66.2346 45.6264 66.3841 43.993 66.3841 42.3301C66.3841 41.5923 65.9404 40.9574 65.3066 40.6754C66.1348 38.7057 66.1913 36.4508 65.3727 34.3857C65.3063 34.2178 65.2078 34.0679 65.0801 33.9401C64.9535 33.8135 64.8054 33.7157 64.6373 33.6482C63.6564 33.2575 62.6254 33.0595 61.5731 33.0595C61.4385 33.0595 61.3046 33.063 61.171 33.0693C61.0209 30.0439 58.5169 27.6286 55.46 27.6286C55.0575 27.6286 54.665 27.6714 54.2859 27.7512C54.5492 26.1758 54.3941 24.5277 53.7806 22.9804C53.7147 22.8103 53.6157 22.6576 53.4811 22.5209C53.3516 22.3914 53.1997 22.2915 53.0312 22.2246C51.9745 21.8037 50.864 21.5904 49.7303 21.5904C48.0225 21.5904 46.3889 22.0705 44.9785 22.9632C44.4633 21.4706 43.6136 20.0694 42.4264 18.8795C42.0787 18.5311 41.6162 18.3392 41.124 18.3392C40.6319 18.3392 40.1694 18.5311 39.8212 18.8797L34.5729 24.1401C33.6016 23.2738 32.3236 22.7559 30.9364 22.7559C30.6216 22.7559 30.3037 22.7835 29.9917 22.8379C28.861 23.0347 27.8206 23.5881 27.0229 24.3986C26.0001 23.9051 24.8283 23.7367 23.7023 23.9327C23.4546 23.9758 23.2142 24.0365 22.981 24.1105V20.0569C22.981 17.2655 20.7374 14.9904 17.9621 14.9424V12.6435C18.8117 12.4965 19.4603 11.7561 19.4603 10.8652V5.65649C19.4603 4.66038 18.6499 3.84985 17.6537 3.84985H8.83863C7.84238 3.84985 7.032 4.66038 7.032 5.65649V10.8652C7.032 11.7561 7.68065 12.4965 8.5302 12.6435V14.9422C5.75492 14.99 3.51152 17.265 3.51152 20.0567V51.6938C1.34731 53.6483 0 56.3755 0 59.3913C0 65.3237 5.20672 70.1501 11.6068 70.1501L54.993 70.1374C56.4739 70.1368 57.8666 69.486 58.8139 68.352C59.7365 67.2481 60.1287 65.8142 59.9028 64.4001L68.5684 65.9574C68.6883 65.979 68.8112 65.99 68.933 65.99C69.3652 65.99 69.7793 65.8573 70.1299 65.6067C70.5807 65.2846 70.8858 64.7862 70.9672 64.2394L71.2019 62.6644C71.2357 62.4388 71.2319 62.2116 71.1908 61.9889C71.0416 61.1836 70.4284 60.5446 69.6284 60.3614L66.574 59.6607L72.3149 58.606C72.8563 58.5066 73.326 58.2026 73.6376 57.7501C73.9487 57.2987 74.0649 56.7533 73.9652 56.214ZM61.5731 35.2272C62.2257 35.2272 62.8672 35.3305 63.4841 35.5342C64.0353 37.2127 63.8289 39.0233 62.9658 40.5189H60.0457L60.9775 39.5849C61.4004 39.1612 61.3995 38.4748 60.9756 38.0519C60.5517 37.629 59.8653 37.6297 59.4427 38.0536L58.9497 38.5478C58.7186 37.7868 58.3151 37.1055 57.7847 36.5466C58.8605 35.6923 60.1813 35.2272 61.5731 35.2272ZM55.46 29.7963C57.4177 29.7963 59.0103 31.3936 59.0103 33.3571C59.0103 33.3935 59.0085 33.4295 59.0075 33.4656C57.8649 33.8372 56.8117 34.458 55.9134 35.301C55.7705 35.2468 55.6255 35.1965 55.4767 35.1553C55.1595 33.4424 54.0052 32.0693 52.4802 31.428C53.1131 30.4475 54.2113 29.7963 55.46 29.7963ZM49.7301 23.7581C50.4664 23.7581 51.1899 23.8772 51.8871 24.1128C52.4474 25.7789 52.333 27.5686 51.619 29.1189C51.032 29.6535 50.5558 30.3082 50.2303 31.0442C50.0368 31.0554 49.8433 31.0768 49.6521 31.1101C48.8027 31.2579 48.0106 31.6265 47.3478 32.161C47.1218 31.7476 46.845 31.3662 46.5279 31.0228L49.0137 28.5314C49.4366 28.1076 49.4357 27.4212 49.0118 26.9985C48.588 26.5756 47.9017 26.5763 47.4788 27.0002L44.7619 29.7233C44.2449 29.4789 43.6861 29.3089 43.0989 29.2294C43.3526 27.9359 43.9803 26.7171 44.9512 25.7438C46.2287 24.4633 47.9259 23.7581 49.7301 23.7581ZM41.4239 40.5189H40.4843C40.3261 40.1162 39.9348 39.8308 39.4759 39.8308C39.0171 39.8308 38.6258 40.1164 38.4676 40.5189H37.3622C37.6189 40.1009 37.567 39.5471 37.2047 39.1854C36.7809 38.7625 36.0945 38.7633 35.6716 39.187L34.6499 40.2109C34.5582 40.3028 34.4876 40.4076 34.4357 40.5189H32.2295C31.4032 39.2509 30.8989 37.7543 30.8392 36.1442H48.0364C47.9767 37.7543 47.4724 39.2509 46.6461 40.5189H44.3502C44.2985 40.4076 44.2277 40.3027 44.1361 40.2107L43.1145 39.1869C42.6915 38.7633 42.0054 38.7621 41.5816 39.1852C41.219 39.5468 41.1671 40.1007 41.4239 40.5189ZM38.9029 33.9763C39.3115 32.462 40.6928 31.3446 42.3297 31.3446C43.9668 31.3446 45.3481 32.4622 45.7567 33.9763H38.9029ZM41.1196 20.6475C42.1506 21.7618 42.8324 23.0849 43.1667 24.4755C42.6133 25.0769 42.1535 25.7415 41.7909 26.4487C41.6263 26.3478 41.4333 26.2887 41.2262 26.2887H39.7818C39.1831 26.2887 38.6978 26.774 38.6978 27.3727C38.6978 27.9713 39.1831 28.4566 39.7818 28.4566H41.0489C40.9776 28.756 40.9223 29.0589 40.8821 29.3641C40.4517 29.4772 40.0406 29.6382 39.6559 29.8431C38.9334 28.5963 37.737 27.6671 36.3194 27.2943C36.319 27.2913 36.3184 27.2883 36.3178 27.2852C36.2328 26.7947 36.0845 26.3293 35.8823 25.8967L41.1196 20.6475ZM21.5244 30.4288C21.4608 30.251 21.4127 30.0686 21.381 29.8856C21.0701 28.0933 22.2784 26.3809 24.0739 26.0683C24.2632 26.0353 24.4556 26.0185 24.6455 26.0185C25.3596 26.0185 26.0421 26.2463 26.6189 26.6772C26.8576 26.8555 27.1593 26.9276 27.453 26.8768C27.7467 26.8258 28.0064 26.6562 28.1712 26.4078C28.6801 25.6402 29.4587 25.1308 30.3634 24.9733C30.5532 24.9402 30.746 24.9236 30.9364 24.9236C32.5424 24.9236 33.9073 26.0726 34.1816 27.6559C34.2132 27.8373 34.2293 28.0264 34.2296 28.2179C34.2306 28.7789 34.6598 29.2466 35.2188 29.2958C36.4307 29.4023 37.4623 30.165 37.9406 31.2394C37.3003 32.0079 36.8565 32.9462 36.688 33.9763H30.5061C29.7375 33.9763 29.078 34.4508 28.8029 35.1222C27.4429 34.196 25.8401 33.6969 24.1603 33.6969C23.108 33.6969 22.0771 33.895 21.0954 34.2858C20.9289 34.3523 20.78 34.4505 20.6531 34.5774C20.5245 34.706 20.4258 34.8567 20.361 35.0221C20.1116 35.6512 19.9452 36.298 19.8553 36.9488C19.4668 36.5066 19.1931 35.9566 19.0861 35.3395C18.8312 33.8687 19.6011 32.4043 20.9578 31.7782C21.4677 31.5429 21.7136 30.9573 21.5244 30.4288ZM24.7558 40.2224L25.0515 40.5189H22.4481C21.8636 39.1629 21.7748 37.6194 22.2493 36.1718C22.8671 35.9679 23.5083 35.8647 24.1603 35.8647C25.7937 35.8647 27.3302 36.5031 28.4866 37.6621C28.6403 37.8163 28.7836 37.9779 28.9181 38.1448C29.1018 38.9764 29.3841 39.7709 29.7477 40.5187H28.1141L26.2906 38.691C25.8675 38.2674 25.1811 38.2662 24.7577 38.6893C24.3338 39.1123 24.3329 39.7987 24.7558 40.2224ZM20.1395 40.5189H16.2752C16.4474 39.4689 17.079 38.5738 17.9558 38.046C18.4748 38.7413 19.1522 39.3035 19.9327 39.6844C19.9879 39.9656 20.0557 40.2444 20.1395 40.5189ZM9.19995 6.01781H17.2924V10.5039H9.19995V6.01781ZM15.7942 12.6719V14.94H10.6983V12.6719H15.7942ZM5.67962 24.4527H12.7187C13.3175 24.4527 13.8027 23.9674 13.8027 23.3687C13.8027 22.7701 13.3175 22.2847 12.7187 22.2847H5.67962V20.0567C5.67962 18.4307 6.99832 17.1079 8.61923 17.1079H17.8732C19.4943 17.1079 20.813 18.4307 20.813 20.0567V22.2847H18.789C18.1902 22.2847 17.705 22.7701 17.705 23.3687C17.705 23.9674 18.1902 24.4527 18.789 24.4527H20.813V25.4148C19.571 26.6325 18.926 28.4182 19.2445 30.255C19.2451 30.2586 19.2458 30.2624 19.2464 30.2662C17.5074 31.4593 16.5808 33.5804 16.9498 35.7098C16.9714 35.8341 16.9984 35.9563 17.0279 36.0773C16.4863 36.3759 16 36.7615 15.5832 37.2127H5.67962V24.4527ZM5.67948 39.3806H14.3244C14.2094 39.7459 14.1282 40.1262 14.0886 40.5189H13.9059C12.9082 40.5189 12.0963 41.3313 12.0963 42.3298C12.0963 44.0511 12.2563 45.7408 12.5664 47.3939C12.2549 47.3689 11.9355 47.3555 11.6106 47.3555C10.2997 47.3555 9.05065 47.5634 8.09401 47.9413C6.63063 48.5191 6.22609 49.3396 6.13778 49.9073C5.9827 49.9845 5.83037 50.066 5.67948 50.1494V39.3806ZM19.4057 52.6969C19.7961 53.0092 20.0347 53.2747 20.173 53.4662C20.16 53.4664 20.1464 53.4665 20.1327 53.4665C19.5192 53.4665 18.4168 53.2192 17.1633 52.5253C16.6966 52.2668 16.2666 51.9747 15.9198 51.6808C15.5154 51.3382 14.9224 51.3384 14.5182 51.681C14.1714 51.9751 13.7415 52.2671 13.2753 52.525C12.0215 53.2192 10.9191 53.4665 10.3058 53.4665C10.2917 53.4665 10.2783 53.4664 10.2651 53.4662C10.4033 53.2747 10.6419 53.0091 11.0325 52.6966C11.3737 52.4234 11.5175 51.9719 11.3971 51.5518C11.2766 51.1315 10.9155 50.8246 10.4812 50.7738C9.4234 50.6498 8.75451 50.3805 8.44131 50.1845C8.83371 49.9401 9.82577 49.5234 11.611 49.5234C13.0896 49.5234 14.1702 49.8343 14.6885 50.1254C15.0182 50.3104 15.4201 50.3104 15.7498 50.1255C16.2684 49.8345 17.3492 49.5236 18.8277 49.5236C20.6131 49.5236 21.605 49.9404 21.9973 50.1847C21.6842 50.3808 21.0152 50.6499 19.9571 50.7739C19.5228 50.8249 19.1616 51.1316 19.0412 51.5521C18.9204 51.9724 19.0642 52.4239 19.4057 52.6969ZM17.2373 65.8905L17.2746 66.0914C17.4035 66.7876 17.6754 67.4266 18.0552 67.9822H11.6068C6.40228 67.9822 2.16796 64.1284 2.16796 59.3913C2.16796 56.1539 4.1463 53.3304 7.05946 51.8663C7.39404 52.116 7.81116 52.3314 8.30603 52.5051C8.10976 52.8403 7.97303 53.2007 7.9408 53.5766C7.89802 54.0764 8.05094 54.5511 8.37179 54.9133C8.7957 55.392 9.44638 55.6346 10.3058 55.6346C11.451 55.6346 12.9537 55.1812 14.3253 54.4219C14.6411 54.2471 14.9397 54.0626 15.2192 53.8698C15.4986 54.0624 15.7972 54.247 16.1131 54.422C17.4847 55.1812 18.9874 55.6345 20.1327 55.6346H20.1328C20.9919 55.6346 21.6426 55.392 22.0664 54.9134C22.3874 54.5512 22.5404 54.0766 22.4975 53.5766C22.4653 53.2007 22.3285 52.8403 22.1323 52.5051C22.6271 52.3312 23.0444 52.1159 23.379 51.8663C25.6893 53.0274 27.4108 55.0438 28.0246 57.4434L20.358 60.3559C18.1139 61.2086 16.8014 63.5361 17.2373 65.8905ZM57.15 66.9621C56.6156 67.6021 55.8289 67.9692 54.992 67.9695L53.8543 67.9699L53.1435 64.1319C53.0344 63.5432 52.4691 63.154 51.8801 63.2634C51.2916 63.3724 50.9027 63.9379 51.0117 64.5266L51.6496 67.9706L47.9199 67.9721L47.4393 65.3767C47.3302 64.788 46.7648 64.3993 46.176 64.5082C45.5874 64.6172 45.1985 65.1828 45.3075 65.7714L45.715 67.9729L37.0396 67.9762L36.3866 64.4514C36.2773 63.8628 35.7122 63.474 35.1233 63.5831C34.5346 63.6921 34.1458 64.2578 34.2548 64.8464L34.8348 67.9771L22.1675 67.982C22.1672 67.982 22.167 67.982 22.1667 67.982C20.8121 67.982 19.6513 67.0209 19.4058 65.6961L19.3686 65.4952C19.1236 64.1719 19.8633 62.8629 21.1275 62.3825L25.3878 60.764L25.7052 62.477C25.8019 62.9989 26.2575 63.3637 26.7697 63.3637C26.8353 63.3637 26.9018 63.3576 26.9686 63.3453C27.5571 63.2362 27.9459 62.6707 27.8368 62.082L27.4475 59.9815L33.7715 57.5791C34.3311 57.3665 34.6125 56.7404 34.3999 56.1808C34.1873 55.621 33.5605 55.3398 33.0017 55.5524L30.0589 56.6703C29.2334 53.7475 27.1125 51.3059 24.3001 49.9072C24.2118 49.3394 23.8072 48.5189 22.344 47.9411C21.3874 47.5633 20.1383 47.3553 18.8274 47.3553C17.9253 47.3553 17.0637 47.4549 16.3032 47.6363V46.9816C16.3032 46.3829 15.818 45.8976 15.2192 45.8976C14.9662 45.8976 14.734 45.9849 14.5495 46.1303C14.3785 44.9996 14.2828 43.8512 14.2669 42.6866H49.574C50.1728 42.6866 50.658 42.2012 50.658 41.6026C50.658 41.0039 50.1728 40.5186 49.574 40.5186H49.1305C49.8207 39.097 50.2107 37.5031 50.2107 35.8186C50.2107 34.8622 49.4789 34.0744 48.5464 33.9849C48.9524 33.6021 49.4591 33.3439 50.0239 33.2455C50.1894 33.2168 50.3574 33.2022 50.5233 33.2022C51.9228 33.2022 53.112 34.2033 53.3509 35.5824C53.3785 35.7421 53.3927 35.9069 53.3928 36.0724C53.3935 36.6337 53.8228 37.1017 54.382 37.1509C55.6774 37.2646 56.7372 38.2389 56.9594 39.52C57.0184 39.8607 57.011 40.1969 56.9519 40.5186H55.7888C55.19 40.5186 54.7049 41.0039 54.7049 41.6026C54.7049 42.2012 55.19 42.6866 55.7888 42.6866H64.2138C64.1869 44.675 63.9308 46.6174 63.4532 48.5019L57.5786 51.9698C57.2193 50.7193 56.3842 49.6586 55.2336 49.0145C53.943 48.2923 52.4094 48.1794 51.0263 48.7048L38.9275 53.3012C38.3677 53.5138 38.0864 54.1399 38.299 54.6995C38.5116 55.2593 39.1383 55.5402 39.6972 55.3279L41.2911 54.7225L41.786 57.3944C41.8827 57.9163 42.3382 58.2813 42.8506 58.2813C42.9161 58.2813 42.9826 58.2752 43.0493 58.2629C43.6379 58.1539 44.0268 57.5884 43.9178 56.9997L43.3511 53.94L51.7959 50.7318C52.5784 50.4347 53.4453 50.4984 54.1747 50.9067C54.9029 51.3142 55.4073 52.0166 55.5587 52.8335L57.7517 64.6727C57.9029 65.4892 57.6836 66.3235 57.15 66.9621ZM61.0177 58.4773C60.512 58.5702 60.1412 59.0055 60.1298 59.5196C60.1185 60.0337 60.47 60.4849 60.9711 60.5998L69.0417 62.451L68.8401 63.8036L59.4841 62.1223L58.0215 54.226L66.1708 49.4155L66.8496 50.6175L59.976 55.2123C59.5487 55.498 59.3807 56.0447 59.5741 56.521C59.7673 56.9974 60.2689 57.2726 60.7744 57.1797L71.5717 55.1963L71.8122 56.4941L61.0177 58.4773Z" fill="#333333"/>
</g>
</symbol><symbol id="heart" viewBox="0 0 20 19">
<path d="M14.1695 0C13.237 0 12.3457 0.213773 11.5205 0.635423C10.9588 0.922392 10.4428 1.30367 10 1.75604C9.5572 1.30367 9.0412 0.922392 8.47946 0.635423C7.65423 0.213773 6.76297 0 5.83043 0C2.61555 0 0 2.61555 0 5.83047C0 8.10755 1.2026 10.526 3.57435 13.0187C5.55464 15.1 7.97913 16.8349 9.66429 17.9238L10 18.1408L10.3357 17.9238C12.0209 16.8349 14.4454 15.1 16.4256 13.0187C18.7974 10.526 20 8.10755 20 5.83047C20 2.61555 17.3845 0 14.1695 0Z"/>
</symbol><symbol id="loup-catalog" viewBox="0 0 22 17">
<path d="M21.4095 12.948L16.4894 8.02667C17.4126 5.93082 17.0176 3.38958 15.3037 1.67526C13.0707 -0.55827 9.4562 -0.558571 7.22292 1.67526C4.99515 3.90355 4.99515 7.52924 7.22292 9.75753C8.99323 11.5282 11.5876 11.8654 13.6588 10.9079L18.5537 15.804C19.3429 16.5934 20.6205 16.5935 21.4097 15.8038C22.1967 15.0165 22.1967 13.7353 21.4095 12.948ZM8.13455 8.84608C6.40923 7.12038 6.40923 4.31246 8.13455 2.58671C9.86369 0.857142 12.6626 0.856841 14.392 2.58671C16.1173 4.31246 16.1173 7.12038 14.392 8.84608C12.6628 10.5757 9.86394 10.5759 8.13455 8.84608ZM20.4979 14.8925C20.2126 15.178 19.7508 15.1781 19.4654 14.8926L14.7887 10.2148C15.1731 9.91218 15.5157 9.56472 15.8132 9.1736L20.4979 13.8594C20.7826 14.1442 20.7827 14.6077 20.4979 14.8925Z"/>
<path d="M0.64456 7.7237H3.39305C3.74902 7.7237 4.03761 7.4351 4.03761 7.07913C4.03761 6.72316 3.74902 6.43457 3.39305 6.43457H0.64456C0.288591 6.43457 0 6.72316 0 7.07913C0 7.4351 0.288591 7.7237 0.64456 7.7237Z"/>
<path d="M0.64456 10.4737H4.42375C4.77972 10.4737 5.06831 10.1851 5.06831 9.82913C5.06831 9.47316 4.77972 9.18457 4.42375 9.18457H0.64456C0.288591 9.18457 0 9.47316 0 9.82913C0 10.1851 0.288591 10.4737 0.64456 10.4737Z"/>
<path d="M0.64456 13.2238H7.17228C7.52825 13.2238 7.81684 12.9352 7.81684 12.5793C7.81684 12.2233 7.52825 11.9347 7.17228 11.9347H0.64456C0.288591 11.9347 0 12.2233 0 12.5793C0 12.9352 0.288591 13.2238 0.64456 13.2238Z"/>
<path d="M14.7307 14.6848H0.64456C0.288591 14.6848 0 14.9734 0 15.3294C0 15.6853 0.288591 15.9739 0.64456 15.9739H14.7307C15.0867 15.9739 15.3753 15.6853 15.3753 15.3294C15.3753 14.9734 15.0867 14.6848 14.7307 14.6848Z"/>
</symbol><symbol id="loupe" viewBox="0 0 20 20">
<g clip-path="url(#clip0)">
<path d="M8.80758 0C3.95121 0 0 3.95121 0 8.80758C0 13.6642 3.95121 17.6152 8.80758 17.6152C13.6642 17.6152 17.6152 13.6642 17.6152 8.80758C17.6152 3.95121 13.6642 0 8.80758 0ZM8.80758 15.9892C4.84769 15.9892 1.62602 12.7675 1.62602 8.80762C1.62602 4.84773 4.84769 1.62602 8.80758 1.62602C12.7675 1.62602 15.9891 4.84769 15.9891 8.80758C15.9891 12.7675 12.7675 15.9892 8.80758 15.9892Z"/>
<path d="M19.7618 18.6122L15.1005 13.9509C14.7829 13.6333 14.2685 13.6333 13.9509 13.9509C13.6333 14.2683 13.6333 14.7832 13.9509 15.1005L18.6122 19.7618C18.771 19.9206 18.9789 20 19.187 20C19.3949 20 19.603 19.9206 19.7618 19.7618C20.0795 19.4445 20.0795 18.9295 19.7618 18.6122Z"/>
</g>

</symbol><symbol id="percent" viewBox="0 0 17 16">
<path d="M4.02 8.56C6.06 8.56 7.48 7.08 7.48 4.7C7.48 2.32 6.06 0.84 4.02 0.84C1.98 0.84 0.54 2.34 0.54 4.7C0.54 7.06 1.98 8.56 4.02 8.56ZM2.8 15H5.18L14.74 0.999999H12.36L2.8 15ZM4.02 6.92C3.16 6.92 2.56 6.18 2.56 4.7C2.56 3.22 3.16 2.48 4.02 2.48C4.9 2.48 5.48 3.2 5.48 4.7C5.48 6.2 4.9 6.92 4.02 6.92ZM13.52 15.16C15.56 15.16 17 13.66 17 11.3C17 8.94 15.56 7.44 13.52 7.44C11.5 7.44 10.06 8.94 10.06 11.3C10.06 13.66 11.5 15.16 13.52 15.16ZM13.52 13.52C12.66 13.52 12.06 12.8 12.06 11.3C12.06 9.8 12.66 9.08 13.52 9.08C14.4 9.08 14.98 9.82 14.98 11.3C14.98 12.78 14.4 13.52 13.52 13.52Z"/>
</symbol><symbol id="phone-call" viewBox="0 0 14 15">
<g clip-path="url(#clip0)">
<path d="M5.79717 8.67727C4.4609 7.41523 4.15917 6.15319 4.0911 5.64755C4.07208 5.50774 4.12302 5.36754 4.22893 5.26821L5.31031 4.24737C5.46938 4.09722 5.49761 3.86323 5.37838 3.68314L3.65662 1.15815C3.52471 0.958737 3.25386 0.886765 3.03121 0.991963L0.267172 2.2214C0.0871172 2.30514 -0.0187886 2.48581 0.00165464 2.67438C0.146482 3.9738 0.74631 7.16811 4.0701 10.3075C7.3939 13.4468 10.7756 14.0131 12.1522 14.1499C12.3519 14.1692 12.5432 14.0692 12.6318 13.8991L13.9336 11.2887C14.0446 11.0788 13.9689 10.8237 13.7586 10.6989L11.0851 9.07325C10.8945 8.96052 10.6467 8.98699 10.4877 9.13708L9.40676 10.1584C9.30159 10.2584 9.15314 10.3065 9.0051 10.2886C8.46972 10.2243 7.13345 9.9393 5.79717 8.67727Z"/>
<path d="M11.1034 7.99707C10.8368 7.99707 10.6207 7.79294 10.6207 7.54113C10.6184 5.65346 8.99868 4.12373 6.99997 4.12159C6.73335 4.12159 6.51721 3.91746 6.51721 3.66566C6.51721 3.41385 6.73335 3.20972 6.99997 3.20972C9.5317 3.21236 11.5834 5.15005 11.5862 7.54113C11.5862 7.79294 11.37 7.99707 11.1034 7.99707Z"/>
<path d="M13.5172 7.9971C13.2506 7.9971 13.0345 7.79297 13.0345 7.54116C13.0307 4.39502 10.3312 1.84545 6.99997 1.84193C6.73335 1.84193 6.51721 1.6378 6.51721 1.38599C6.51721 1.13418 6.73335 0.930054 6.99997 0.930054C10.8642 0.934074 13.9957 3.89162 14 7.54116C14 7.66209 13.9491 7.77806 13.8586 7.86356C13.768 7.94907 13.6452 7.9971 13.5172 7.9971Z"/>
</g>

</symbol><symbol id="reception-bell" viewBox="0 0 40 40">
<path d="M33.5944 30.0681C33.278 29.9376 32.9359 29.8814 32.5944 29.9037L31.8644 25.5225C31.8402 25.3769 31.7652 25.2445 31.6527 25.1489C31.5403 25.0533 31.3976 25.0005 31.25 25H28.4375L27.5 23.75H33.125C33.5692 23.7511 33.9993 23.5941 34.3382 23.307C34.6772 23.0199 34.9029 22.6216 34.9749 22.1833C35.047 21.745 34.9606 21.2953 34.7314 20.9149C34.5021 20.5344 34.1449 20.248 33.7238 20.1069C33.6034 17.5442 32.6107 15.0996 30.9104 13.1785C29.21 11.2574 26.9041 9.97512 24.375 9.54437V8.75C24.3722 8.25358 24.1738 7.77829 23.8227 7.42726C23.4717 7.07623 22.9964 6.87779 22.5 6.875C22.0027 6.875 21.5258 7.07254 21.1742 7.42417C20.8225 7.77581 20.625 8.25272 20.625 8.75V9.54437C18.0959 9.97512 15.79 11.2574 14.0896 13.1785C12.3893 15.0996 11.3966 17.5442 11.2762 20.1069C10.8551 20.248 10.4979 20.5344 10.2686 20.9149C10.0394 21.2953 9.95303 21.745 10.0251 22.1833C10.0971 22.6216 10.3228 23.0199 10.6618 23.307C11.0007 23.5941 11.4308 23.7511 11.875 23.75H17.5L16.5625 25H13.75C13.6021 25.0001 13.4589 25.0526 13.3461 25.1483C13.2333 25.244 13.158 25.3766 13.1337 25.5225L12.8038 27.5H11.25C11.25 27.3342 11.1842 27.1753 11.0669 27.0581C10.9497 26.9408 10.7908 26.875 10.625 26.875H1.875V28.125H10V35.625H1.875V36.875H10.625C10.7908 36.875 10.9497 36.8091 11.0669 36.6919C11.1842 36.5747 11.25 36.4158 11.25 36.25V36.0119L15.9163 37.9494C18.4602 38.9874 21.3038 39.0187 23.87 38.0369L33.5244 34.3556C33.8076 34.2481 34.0664 34.0851 34.2857 33.8761C34.505 33.6671 34.6803 33.4164 34.8013 33.1387C34.9267 32.8572 34.9945 32.5534 35.0009 32.2453C35.0072 31.9371 34.9519 31.6308 34.8381 31.3444C34.7272 31.059 34.56 30.7988 34.3463 30.5795C34.1326 30.3603 33.8768 30.1863 33.5944 30.0681ZM21.875 8.75C21.875 8.58424 21.9408 8.42527 22.0581 8.30806C22.1753 8.19085 22.3342 8.125 22.5 8.125C22.5833 8.12488 22.6657 8.14178 22.7423 8.17467C22.8188 8.20755 22.8878 8.25573 22.945 8.31625C23.0027 8.37266 23.0484 8.44018 23.0793 8.51472C23.1103 8.58926 23.1258 8.6693 23.125 8.75V9.40687C22.9169 9.395 22.7113 9.375 22.5 9.375C22.2887 9.375 22.0831 9.395 21.875 9.40687V8.75ZM22.5 10.625C25.0415 10.6292 27.4862 11.6005 29.3376 13.3417C31.189 15.0829 32.3082 17.4635 32.4681 20H12.5306C12.6905 17.4633 13.81 15.0825 15.6616 13.3413C17.5133 11.6 19.9582 10.6289 22.5 10.625ZM11.25 21.875C11.25 21.7092 11.3158 21.5503 11.4331 21.4331C11.5503 21.3158 11.7092 21.25 11.875 21.25H33.125C33.2908 21.25 33.4497 21.3158 33.5669 21.4331C33.6842 21.5503 33.75 21.7092 33.75 21.875C33.75 22.0408 33.6842 22.1997 33.5669 22.3169C33.4497 22.4342 33.2908 22.5 33.125 22.5H11.875C11.7092 22.5 11.5503 22.4342 11.4331 22.3169C11.3158 22.1997 11.25 22.0408 11.25 21.875ZM19.0625 23.75H25.9375L26.875 25H18.125L19.0625 23.75ZM30.7206 26.25L31.3894 30.2637L27.7894 31.7919C27.8012 31.7159 27.8089 31.6393 27.8125 31.5625C27.8125 30.9823 27.582 30.4259 27.1718 30.0157C26.7616 29.6055 26.2052 29.375 25.625 29.375H20.7769C20.2867 29.3742 19.8033 29.2602 19.3644 29.0419C17.7064 28.2177 15.9075 27.7145 14.0625 27.5587L14.2794 26.25H30.7206ZM33.6581 32.6344C33.6036 32.7606 33.5244 32.8746 33.4251 32.9697C33.3258 33.0648 33.2084 33.1391 33.08 33.1881L23.425 36.8694C21.1563 37.7382 18.6419 37.7109 16.3925 36.7931L11.25 34.6575V28.75H12.8344C14.907 28.7526 16.9508 29.2352 18.8056 30.16C19.418 30.4651 20.0927 30.6243 20.7769 30.625H25.625C25.8547 30.6263 26.0758 30.7119 26.2466 30.8655C26.4173 31.0191 26.5257 31.2301 26.5513 31.4583C26.5768 31.6866 26.5176 31.9163 26.385 32.1038C26.2524 32.2913 26.0556 32.4236 25.8319 32.4756C25.75 32.4831 25.6694 32.5 25.5863 32.5H18.125V33.75H25.5863H25.625C25.6375 33.75 25.6494 33.7462 25.6625 33.7462C26.1585 33.7381 26.6482 33.6346 27.105 33.4412L32.33 31.2225C32.4533 31.1696 32.5861 31.1424 32.7203 31.1424C32.8545 31.1424 32.9873 31.1696 33.1106 31.2225C33.2388 31.2766 33.3546 31.356 33.4513 31.456C33.548 31.556 33.6234 31.6745 33.6731 31.8044C33.726 31.9368 33.7519 32.0784 33.7492 32.221C33.7465 32.3635 33.7153 32.5041 33.6575 32.6344H33.6581Z" fill="#333333"/>
<path d="M7.5 33.125H8.75V34.375H7.5V33.125Z" fill="#333333"/>
<path d="M15.577 17.7356C16.1455 16.3685 17.1067 15.2007 18.339 14.38C19.5714 13.5593 21.0195 13.1225 22.5001 13.125V11.875C20.7728 11.8722 19.0836 12.3816 17.6459 13.3389C16.2082 14.2962 15.0867 15.6584 14.4232 17.2531L15.577 17.7356Z" fill="#333333"/>
<path d="M21.875 3.125H23.125V5.625H21.875V3.125Z" fill="#333333"/>
<path d="M16.875 8.125H19.375V9.375H16.875V8.125Z" fill="#333333"/>
<path d="M25.625 8.125H28.125V9.375H25.625V8.125Z" fill="#333333"/>
<path d="M24.0376 6.32776L25.8054 4.55999L26.6892 5.44387L24.9215 7.21164L24.0376 6.32776Z" fill="#333333"/>
<path d="M18.3065 5.44501L19.1904 4.56112L20.9582 6.32889L20.0743 7.21277L18.3065 5.44501Z" fill="#333333"/>
</symbol><symbol id="recommended" viewBox="0 0 40 40">
<path d="M29.5425 33.62L27.7175 37.2169L28.8319 37.7831L30.5119 34.4706L37.625 33.3537C37.7062 33.341 37.784 33.3123 37.8541 33.2694C37.9242 33.2265 37.9851 33.1702 38.0334 33.1038C38.0817 33.0373 38.1164 32.9619 38.1356 32.882C38.1547 32.8022 38.1579 32.7193 38.145 32.6381L37.0138 25.5281L38.3513 24.1925L37.4682 23.3075L35.9057 24.87C35.8357 24.9398 35.7834 25.0252 35.7528 25.1192C35.7223 25.2132 35.7145 25.313 35.73 25.4106L36.8125 32.2162L30 33.2856C29.9028 33.3014 29.8107 33.3399 29.7312 33.398C29.6517 33.4561 29.5871 33.5322 29.5425 33.62Z" fill="#333333"/>
<path d="M3.72568 11.1519L3.18756 7.78373L10.0001 6.71435C10.0977 6.69897 10.1903 6.66064 10.2703 6.60252C10.3503 6.54439 10.4153 6.46812 10.4601 6.37998L12.6001 2.15811L11.4851 1.59186L9.48506 5.52936L2.37506 6.64623C2.2939 6.65901 2.21605 6.68767 2.14598 6.73057C2.0759 6.77346 2.01497 6.82975 1.96668 6.89622C1.91838 6.96269 1.88366 7.03803 1.86451 7.11792C1.84536 7.19782 1.84214 7.28071 1.85506 7.36185L2.48881 11.3481L3.72568 11.1519Z" fill="#333333"/>
<path d="M2.68848 12.6041L3.92299 12.4079L4.12161 13.6578L2.8871 13.854L2.68848 12.6041Z" fill="#333333"/>
<path d="M34.3431 15.3393L35.2806 9.44309C35.2936 9.3619 35.2903 9.27897 35.2711 9.19903C35.2519 9.1191 35.2172 9.04374 35.1688 8.97726C35.1204 8.91079 35.0594 8.85451 34.9893 8.81164C34.9191 8.76878 34.8412 8.74017 34.76 8.72746L28.8613 7.80059L26.1594 2.47497C26.1223 2.40149 26.0711 2.33607 26.0087 2.28244C25.9463 2.22881 25.8739 2.18804 25.7956 2.16247C25.6374 2.11191 25.4657 2.1256 25.3175 2.20059L20 4.92246L14.6825 2.20122C14.6093 2.16378 14.5294 2.14117 14.4474 2.13467C14.3654 2.12817 14.283 2.13792 14.2048 2.16335C14.1266 2.18878 14.0541 2.22939 13.9916 2.28287C13.9292 2.33634 13.8778 2.40162 13.8406 2.47497L11.1388 7.79996L5.23939 8.72684C5.15823 8.73962 5.08039 8.76828 5.01031 8.81118C4.94024 8.85407 4.87931 8.91036 4.83101 8.97683C4.78272 9.0433 4.748 9.11864 4.72884 9.19853C4.70969 9.27843 4.70648 9.36132 4.71939 9.44246L5.65689 15.3387L1.43252 19.5575C1.37431 19.6155 1.32814 19.6845 1.29663 19.7604C1.26512 19.8363 1.2489 19.9177 1.2489 20C1.2489 20.0822 1.26512 20.1636 1.29663 20.2395C1.32814 20.3154 1.37431 20.3844 1.43252 20.4425L5.65627 24.6606L4.71877 30.5568C4.70586 30.638 4.7091 30.721 4.72829 30.8009C4.74748 30.8808 4.78225 30.9562 4.83061 31.0227C4.87897 31.0891 4.93997 31.1454 5.01012 31.1883C5.08026 31.2311 5.15818 31.2597 5.23939 31.2725L11.1381 32.1993L13.8406 37.525C13.8777 37.5984 13.9289 37.6639 13.9914 37.7175C14.0538 37.7711 14.1262 37.8119 14.2044 37.8375C14.2668 37.8573 14.332 37.8674 14.3975 37.8675C14.4965 37.8674 14.5942 37.8441 14.6825 37.7993L20 35.0775L25.3175 37.7987C25.3907 37.8361 25.4706 37.8588 25.5526 37.8652C25.6346 37.8717 25.7171 37.862 25.7953 37.8366C25.8735 37.8111 25.9459 37.7705 26.0084 37.717C26.0709 37.6636 26.1222 37.5983 26.1594 37.525L28.8613 32.2L34.7606 31.2731C34.8418 31.2603 34.9197 31.2316 34.9897 31.1887C35.0598 31.1458 35.1207 31.0896 35.169 31.0231C35.2173 30.9566 35.252 30.8813 35.2712 30.8014C35.2903 30.7215 35.2936 30.6386 35.2806 30.5575L34.3431 24.6612L38.5675 20.4425C38.6257 20.3844 38.6719 20.3154 38.7034 20.2395C38.7349 20.1636 38.7511 20.0822 38.7511 20C38.7511 19.9177 38.7349 19.8363 38.7034 19.7604C38.6719 19.6845 38.6257 19.6155 38.5675 19.5575L34.3431 15.3393ZM33.2338 24C33.1638 24.0698 33.1115 24.1552 33.0809 24.2491C33.0504 24.3431 33.0426 24.443 33.0581 24.5406L33.9475 30.1331L28.3513 31.0125C28.2536 31.0278 28.161 31.0662 28.081 31.1243C28.0011 31.1824 27.936 31.2587 27.8913 31.3468L25.3288 36.3981L20.285 33.8168C20.1968 33.7716 20.0991 33.7481 20 33.7481C19.9009 33.7481 19.8032 33.7716 19.715 33.8168L14.6713 36.3981L12.1088 31.3468C12.0639 31.2586 11.9988 31.1823 11.9187 31.1242C11.8386 31.066 11.7459 31.0277 11.6481 31.0125L6.05189 30.135L6.94189 24.5425C6.95744 24.4449 6.94963 24.345 6.9191 24.251C6.88857 24.157 6.83619 24.0716 6.76627 24.0018L2.75939 20L6.76627 16C6.83619 15.9301 6.88857 15.8447 6.9191 15.7508C6.94963 15.6568 6.95744 15.5569 6.94189 15.4593L6.05252 9.86496L11.6488 8.98559C11.7464 8.97021 11.839 8.93188 11.919 8.87375C11.999 8.81562 12.064 8.73936 12.1088 8.65121L14.6713 3.59996L19.715 6.18121C19.8032 6.22641 19.9009 6.24998 20 6.24998C20.0991 6.24998 20.1968 6.22641 20.285 6.18121L25.3288 3.59996L27.8913 8.65121C27.9361 8.73943 28.0012 8.81575 28.0813 8.87388C28.1614 8.93201 28.2541 8.9703 28.3519 8.98559L33.9481 9.86496L33.0581 15.4575C33.0426 15.555 33.0504 15.6549 33.0809 15.7489C33.1115 15.8429 33.1638 15.9283 33.2338 15.9981L37.2406 20L33.2338 24Z" fill="#333333"/>
<path d="M11.875 22.5H13.125V23.75H11.875V22.5Z" fill="#333333"/>
<path d="M28.125 15H22.5V11.875C22.499 11.0465 22.1694 10.2522 21.5836 9.66639C20.9978 9.08055 20.2035 8.75099 19.375 8.75C19.2357 8.75 19.1003 8.79656 18.9905 8.88228C18.8807 8.96801 18.8026 9.08797 18.7688 9.22312L17.25 15.3031C17.1824 15.5738 17.0261 15.814 16.8062 15.9856C16.5862 16.1572 16.3152 16.2502 16.0363 16.25H15.625V15.625C15.625 15.4592 15.5592 15.3003 15.4419 15.1831C15.3247 15.0658 15.1658 15 15 15H10C9.83424 15 9.67527 15.0658 9.55806 15.1831C9.44085 15.3003 9.375 15.4592 9.375 15.625V25.625C9.375 25.7908 9.44085 25.9497 9.55806 26.0669C9.67527 26.1842 9.83424 26.25 10 26.25H15C15.1658 26.25 15.3247 26.1842 15.4419 26.0669C15.5592 25.9497 15.625 25.7908 15.625 25.625V25H17.3544C19.0509 25.8204 20.9105 26.2477 22.795 26.25H25.625C26.1223 26.25 26.5992 26.0525 26.9508 25.7008C27.3025 25.3492 27.5 24.8723 27.5 24.375C27.4982 24.052 27.412 23.7351 27.25 23.4556C27.622 23.224 27.9001 22.8683 28.0352 22.4514C28.1703 22.0345 28.1536 21.5833 27.9881 21.1775C28.2648 21.106 28.5211 20.9714 28.737 20.7843C28.9529 20.5972 29.1226 20.3626 29.2327 20.099C29.3429 19.8353 29.3904 19.5498 29.3718 19.2647C29.3531 18.9796 29.2686 18.7026 29.125 18.4556C29.469 18.2394 29.7333 17.9172 29.878 17.5375C30.0226 17.1578 30.0398 16.7414 29.9269 16.3511C29.8139 15.9608 29.577 15.6179 29.2519 15.3741C28.9269 15.1304 28.5313 14.9991 28.125 15ZM14.375 25H10.625V16.25H14.375V25ZM27.5 20H24.375V21.25H26.25C26.4158 21.25 26.5747 21.3158 26.6919 21.4331C26.8092 21.5503 26.875 21.7092 26.875 21.875C26.875 22.0408 26.8092 22.1997 26.6919 22.3169C26.5747 22.4342 26.4158 22.5 26.25 22.5H23.75V23.75H25.625C25.7908 23.75 25.9497 23.8158 26.0669 23.9331C26.1842 24.0503 26.25 24.2092 26.25 24.375C26.25 24.5408 26.1842 24.6997 26.0669 24.8169C25.9497 24.9342 25.7908 25 25.625 25H22.795C21.0538 24.9971 19.337 24.5907 17.7794 23.8125C17.6923 23.7703 17.5967 23.7489 17.5 23.75H15.625V17.5H16.0363C16.5938 17.5001 17.1355 17.3137 17.575 16.9706C18.0145 16.6274 18.3267 16.1472 18.4619 15.6062L19.8481 10.0625C20.2493 10.1671 20.6045 10.4017 20.8581 10.7297C21.1118 11.0576 21.2496 11.4604 21.25 11.875V15.625C21.25 15.7908 21.3158 15.9497 21.4331 16.0669C21.5503 16.1842 21.7092 16.25 21.875 16.25H28.125C28.2908 16.25 28.4497 16.3158 28.5669 16.4331C28.6842 16.5503 28.75 16.7092 28.75 16.875C28.75 17.0408 28.6842 17.1997 28.5669 17.3169C28.4497 17.4342 28.2908 17.5 28.125 17.5H25V18.75H27.5C27.6658 18.75 27.8247 18.8158 27.9419 18.9331C28.0592 19.0503 28.125 19.2092 28.125 19.375C28.125 19.5408 28.0592 19.6997 27.9419 19.8169C27.8247 19.9342 27.6658 20 27.5 20Z" fill="#333333"/>
<path d="M17.5 28.125H22.5V29.375H17.5V28.125Z" fill="#333333"/>
<path d="M15.625 30.625H24.375V31.875H15.625V30.625Z" fill="#333333"/>
</symbol><symbol id="reservation" viewBox="0 0 40 40">
<path d="M5 34.375V10H35V21.875H36.25V5.625C36.25 5.12772 36.0525 4.65081 35.7008 4.29917C35.3492 3.94754 34.8723 3.75 34.375 3.75H5.625C5.12772 3.75 4.65081 3.94754 4.29917 4.29917C3.94754 4.65081 3.75 5.12772 3.75 5.625V34.375C3.75 34.8723 3.94754 35.3492 4.29917 35.7008C4.65081 36.0525 5.12772 36.25 5.625 36.25H26.25V35H5.625C5.45924 35 5.30027 34.9342 5.18306 34.8169C5.06585 34.6997 5 34.5408 5 34.375ZM5.625 5H34.375C34.5408 5 34.6997 5.06585 34.8169 5.18306C34.9342 5.30027 35 5.45924 35 5.625V8.75H5V5.625C5 5.45924 5.06585 5.30027 5.18306 5.18306C5.30027 5.06585 5.45924 5 5.625 5Z" fill="#333333"/>
<path d="M6.25 6.25H7.5V7.5H6.25V6.25Z" fill="#333333"/>
<path d="M8.75 6.25H10V7.5H8.75V6.25Z" fill="#333333"/>
<path d="M11.25 6.25H12.5V7.5H11.25V6.25Z" fill="#333333"/>
<path d="M1.25 19.375H2.5V31.875H1.25V19.375Z" fill="#333333"/>
<path d="M14.375 20V15H16.875V13.75H10.625V15H13.125V20H14.375Z" fill="#333333"/>
<path d="M20 12.5H18.75V16.25H16.25C16.0842 16.25 15.9253 16.3158 15.8081 16.4331C15.6908 16.5503 15.625 16.7092 15.625 16.875V20H16.875V17.5H18.75V20H20V12.5Z" fill="#333333"/>
<path d="M11.875 20V16.875C11.875 16.7092 11.8092 16.5503 11.6919 16.4331C11.5747 16.3158 11.4158 16.25 11.25 16.25H8.75V12.5H7.5V20H8.75V17.5H10.625V20H11.875Z" fill="#333333"/>
<path d="M35.625 23.125C35.302 23.1268 34.9851 23.213 34.7056 23.375C34.474 23.003 34.1182 22.7249 33.7014 22.5898C33.2845 22.4547 32.8333 22.4714 32.4275 22.6369C32.3635 22.3865 32.2475 22.1524 32.0872 21.9498C31.9269 21.7471 31.7258 21.5804 31.4969 21.4605C31.268 21.3406 31.0165 21.2701 30.7586 21.2536C30.5007 21.2372 30.2422 21.2751 30 21.365V20C30 19.5027 29.8024 19.0258 29.4508 18.6742C29.0992 18.3225 28.6222 18.125 28.125 18.125C27.6277 18.125 27.1508 18.3225 26.7991 18.6742C26.4475 19.0258 26.25 19.5027 26.25 20V25.8637L25.5931 26.1919C25.0707 26.4532 24.6261 26.8471 24.3038 27.3342C23.9814 27.8213 23.7927 28.3845 23.7564 28.9675C23.7202 29.5505 23.8377 30.1328 24.0971 30.6561C24.3566 31.1794 24.749 31.6254 25.235 31.9494L26.9431 33.0881C27.1144 33.2022 27.2548 33.3569 27.3519 33.5383C27.4491 33.7197 27.4999 33.9223 27.5 34.1281V38.75H28.75V34.125C28.7503 33.7134 28.6489 33.3081 28.4547 32.9452C28.2605 32.5823 27.9795 32.273 27.6368 32.045L25.9281 30.9062C25.6243 30.7036 25.3791 30.4248 25.2169 30.0976C25.0547 29.7704 24.9814 29.4064 25.0041 29.042C25.0268 28.6775 25.1448 28.3254 25.3464 28.0209C25.5479 27.7164 25.8259 27.4702 26.1525 27.3069L26.25 27.2612V28.75H27.5V20C27.5 19.8342 27.5658 19.6753 27.683 19.5581C27.8002 19.4408 27.9592 19.375 28.125 19.375C28.2907 19.375 28.4497 19.4408 28.5669 19.5581C28.6841 19.6753 28.75 19.8342 28.75 20V25.625H30V23.125C30 22.9592 30.0658 22.8003 30.183 22.6831C30.3002 22.5658 30.4592 22.5 30.625 22.5C30.7907 22.5 30.9497 22.5658 31.0669 22.6831C31.1841 22.8003 31.25 22.9592 31.25 23.125V26.25H32.5V24.375C32.5 24.2092 32.5658 24.0503 32.683 23.9331C32.8002 23.8158 32.9592 23.75 33.125 23.75C33.2907 23.75 33.4497 23.8158 33.5669 23.9331C33.6841 24.0503 33.75 24.2092 33.75 24.375V26.875H35V25C35 24.8342 35.0658 24.6753 35.183 24.5581C35.3002 24.4408 35.4592 24.375 35.625 24.375C35.7907 24.375 35.9497 24.4408 36.0669 24.5581C36.1841 24.6753 36.25 24.8342 36.25 25V27.83C36.2469 29.5712 35.8405 31.2879 35.0625 32.8456C35.0203 32.9327 34.9989 33.0283 35 33.125V38.75H36.25V33.27C37.0701 31.5745 37.4973 29.7159 37.5 27.8325V25C37.5 24.5027 37.3024 24.0258 36.9508 23.6742C36.5992 23.3225 36.1223 23.125 35.625 23.125Z" fill="#333333"/>
<path d="M28.125 16.875C28.9535 16.876 29.7478 17.2056 30.3336 17.7914C30.9195 18.3772 31.249 19.1715 31.25 20H32.5C32.4999 19.329 32.3454 18.6671 32.0485 18.0653C31.7517 17.4636 31.3204 16.9382 30.788 16.5297C30.2556 16.1213 29.6365 15.8408 28.9784 15.7099C28.3203 15.5791 27.6409 15.6013 26.9927 15.775C26.3446 15.9486 25.7451 16.269 25.2406 16.7114C24.7361 17.1538 24.3401 17.7063 24.0832 18.3262C23.8264 18.9461 23.7156 19.6167 23.7593 20.2863C23.8031 20.9558 24.0003 21.6064 24.3356 22.1875L25.4175 21.5625C25.1432 21.0874 24.9988 20.5484 24.9988 19.9997C24.9989 19.4511 25.1434 18.9121 25.4178 18.437C25.6922 17.9619 26.0869 17.5674 26.5621 17.2933C27.0373 17.0191 27.5764 16.8748 28.125 16.875Z" fill="#333333"/>
<path d="M10.625 23.125C10.625 22.9592 10.5592 22.8003 10.4419 22.6831C10.3247 22.5658 10.1658 22.5 10 22.5H7.5C7.33424 22.5 7.17527 22.5658 7.05806 22.6831C6.94085 22.8003 6.875 22.9592 6.875 23.125V25.625C6.875 25.7908 6.94085 25.9497 7.05806 26.0669C7.17527 26.1842 7.33424 26.25 7.5 26.25H10C10.1658 26.25 10.3247 26.1842 10.4419 26.0669C10.5592 25.9497 10.625 25.7908 10.625 25.625V23.125ZM9.375 25H8.125V23.75H9.375V25Z" fill="#333333"/>
<path d="M11.875 22.5H13.125V23.75H11.875V22.5Z" fill="#333333"/>
<path d="M14.375 22.5H20V23.75H14.375V22.5Z" fill="#333333"/>
<path d="M11.875 25H13.125V26.25H11.875V25Z" fill="#333333"/>
<path d="M14.375 25H20V26.25H14.375V25Z" fill="#333333"/>
<path d="M10 28.125H7.5C7.33424 28.125 7.17527 28.1908 7.05806 28.3081C6.94085 28.4253 6.875 28.5842 6.875 28.75V31.25C6.875 31.4158 6.94085 31.5747 7.05806 31.6919C7.17527 31.8092 7.33424 31.875 7.5 31.875H10C10.1658 31.875 10.3247 31.8092 10.4419 31.6919C10.5592 31.5747 10.625 31.4158 10.625 31.25V28.75C10.625 28.5842 10.5592 28.4253 10.4419 28.3081C10.3247 28.1908 10.1658 28.125 10 28.125ZM9.375 30.625H8.125V29.375H9.375V30.625Z" fill="#333333"/>
<path d="M11.875 28.125H13.125V29.375H11.875V28.125Z" fill="#333333"/>
<path d="M14.375 28.125H20V29.375H14.375V28.125Z" fill="#333333"/>
<path d="M11.875 30.625H13.125V31.875H11.875V30.625Z" fill="#333333"/>
<path d="M14.375 30.625H20V31.875H14.375V30.625Z" fill="#333333"/>
<path d="M37.5 5.625H38.75V15.625H37.5V5.625Z" fill="#333333"/>
</symbol><symbol id="shopping-cart" viewBox="0 0 20 20">
<path d="M7.08332 19.1666C8.23391 19.1666 9.16664 18.2339 9.16664 17.0833C9.16664 15.9327 8.23391 15 7.08332 15C5.93273 15 5 15.9327 5 17.0833C5 18.2339 5.93273 19.1666 7.08332 19.1666Z"/>
<path d="M19.9167 3.50001C19.8334 3.41669 19.75 3.33333 19.5834 3.33333H3.75L3.33332 1.16669C3.25 1.00001 3.08332 0.833374 2.91664 0.833374H0.416641C0.16668 0.833335 0 1.00001 0 1.25001C0 1.50001 0.16668 1.66669 0.41668 1.66669H2.58336L4.58336 11.8334C4.91668 13.1667 6.08336 14.1667 7.50004 14.1667H17.0834C17.3334 14.1667 17.5 14 17.5 13.75C17.5 13.5 17.3334 13.3333 17.0834 13.3333H7.5C6.83332 13.3333 6.16668 13 5.83332 12.4167L18 10.75C18.1667 10.75 18.3333 10.5833 18.3333 10.4167L20 3.75001C20 3.75001 20 3.58333 19.9167 3.50001Z"/>
<path d="M15.4168 19.1666C16.5674 19.1666 17.5001 18.2339 17.5001 17.0833C17.5001 15.9327 16.5674 15 15.4168 15C14.2662 15 13.3335 15.9327 13.3335 17.0833C13.3335 18.2339 14.2662 19.1666 15.4168 19.1666Z"/>
</symbol><symbol id="spot" viewBox="0 0 14 14">
<g clip-path="url(#clip0)">
<g clip-path="url(#clip1)">
<path d="M7.00001 3.73059C6.01337 3.73059 5.21069 4.49681 5.21069 5.43858C5.21069 6.38035 6.01337 7.14656 7.00001 7.14656C7.98666 7.14656 8.78933 6.38035 8.78933 5.43858C8.78933 4.49681 7.98663 3.73059 7.00001 3.73059Z"/>
<path d="M11.187 1.65547C10.0686 0.587922 8.58165 0 7.00003 0C5.41841 0 3.93143 0.587922 2.81307 1.65547C1.69465 2.72305 1.07874 4.14241 1.07874 5.65211C1.07874 8.70625 4.10405 11.2465 5.72936 12.6113C5.95519 12.8009 6.15024 12.9647 6.30558 13.1032C6.50029 13.2769 6.75011 13.3636 7 13.3636C7.24987 13.3636 7.49973 13.2768 7.69442 13.1032C7.84982 12.9647 8.04483 12.8009 8.27067 12.6113C9.89598 11.2465 12.9213 8.70628 12.9213 5.65214C12.9213 4.14241 12.3054 2.72305 11.187 1.65547ZM7.00003 7.92936C5.56117 7.92936 4.39061 6.81201 4.39061 5.43856C4.39061 4.0651 5.56117 2.94775 7.00003 2.94775C8.43888 2.94775 9.60944 4.0651 9.60944 5.43856C9.60944 6.81201 8.43886 7.92936 7.00003 7.92936Z"/>
</g>
</g>

</symbol><symbol id="square-rounded" viewBox="0 0 20 20">
<rect x="9.89941" width="14" height="14" rx="2" transform="rotate(45 9.89941 0)" fill="white"/>
</symbol><symbol id="user" viewBox="0 0 16 20">
<path d="M7.60587 9.78131C5.38222 9.78131 3.57942 7.59171 3.57942 4.89069C3.57942 2.1896 4.1713 0 7.60587 0C11.0404 0 11.6324 2.1896 11.6324 4.89069C11.6324 7.59171 9.82965 9.78131 7.60587 9.78131Z"/>
<path d="M15.2105 17.2487C15.2117 17.084 15.213 17.2023 15.2105 17.2487V17.2487Z"/>
<path d="M0.0012207 17.3774C-0.000943219 17.3323 0.000480414 17.0646 0.0012207 17.3774V17.3774Z"/>
<path d="M0.00890636 17.0513C0.083478 12.346 0.697993 11.0053 5.40045 10.1566C5.40045 10.1566 6.06239 11.0001 7.60525 11.0001C9.14811 11.0001 9.81016 10.1566 9.81016 10.1566C14.4613 10.996 15.1132 12.3169 15.1989 16.8984C15.2059 17.2726 15.2092 17.2922 15.2104 17.2488C15.2102 17.3302 15.2098 17.4807 15.2098 17.7431C15.2098 17.7431 14.0903 20 7.60525 20C1.12034 20 0.000677109 17.7431 0.000677109 17.7431C0.000677109 17.5745 0.000562668 17.4572 0.00039196 17.3775C0.0016489 17.4043 0.00416374 17.3523 0.00890636 17.0513Z"/>
</symbol></svg>