<?xml version="1.0" encoding="utf-8"?>
<!-- Generator: Adobe Illustrator 25.2.0, SVG Export Plug-In . SVG Version: 6.00 Build 0)  -->
<svg version="1.1" id="Layer_1" xmlns="http://www.w3.org/2000/svg" xmlns:xlink="http://www.w3.org/1999/xlink" x="0px" y="0px"
	 viewBox="0 0 500 500" style="enable-background:new 0 0 500 500;" xml:space="preserve">
<style type="text/css">
	
		.st0{fill-rule:evenodd;clip-rule:evenodd;fill:#B0F0A8;stroke:#6C6CAA;stroke-width:20.1764;stroke-linecap:round;stroke-linejoin:round;stroke-miterlimit:10;}
	
		.st1{fill-rule:evenodd;clip-rule:evenodd;fill:#F5D8B3;stroke:#6C6CAA;stroke-width:20.1764;stroke-linecap:round;stroke-linejoin:round;stroke-miterlimit:10;}
	.st2{fill:none;stroke:#6C6CAA;stroke-width:20.1764;stroke-linecap:round;stroke-linejoin:round;stroke-miterlimit:10;}
	
		.st3{fill-rule:evenodd;clip-rule:evenodd;fill:#DCF2FF;stroke:#6C6CAA;stroke-width:20.1764;stroke-linecap:round;stroke-linejoin:round;stroke-miterlimit:10;}
</style>
<g>
	<path class="st0" d="M98.38152,376.24234c6.887-85.021,93.27701-120.54401,171.57997-113.51401l-0.48596,0.457
		c-0.74304,0.68701-1.48499,1.37201-2.229,2.05801l-0.48602,0.457c-0.79999,0.715-1.60101,1.42999-2.39996,2.173l-0.45703,0.42801
		c-0.80096,0.715-1.60101,1.42999-2.39996,2.14401l-0.45801,0.42899c-0.88599,0.771-1.771,1.57199-2.65704,2.37201l-0.086,0.086
		l-0.02802,0.02802l-0.086,0.05801c-0.914,0.79999-1.82898,1.629-2.77098,2.45801l-0.258,0.229
		c-1,0.88599-1.97198,1.74301-2.97198,2.629h-0.02802l0,0c-1.02899,0.914-2.08701,1.85699-3.173,2.772l33.20802,19.34799
		c1.05701-1.258,2.11401-2.51599,3.172-3.74399l0.20001-0.229l0.08496-0.086c1.02899-1.229,2.02899-2.39999,3.02899-3.60101
		l0.34302-0.39999c0.88696-1.02802,1.74396-2.05801,2.63-3.08701l0.79999-0.97198c0.71497-0.85599,1.42896-1.686,2.11499-2.543
		l1.20001-1.39999c0.54297-0.686,1.086-1.34299,1.65698-2c0.51501-0.629,1.05804-1.28601,1.57104-1.91501l0.94299-1.14401
		l0.37201-0.457c0.65698-0.771,1.28497-1.543,1.914-2.314l0.37201-0.45801l0.17096-0.19901
		c0.68701-0.85699,1.37201-1.715,2.05804-2.54401l0.34296-0.457l0.37201-0.42899c0.71399-0.91501,1.42902-1.80099,2.14404-2.68701
		l0.34296-0.42899c52.92603,15.17499,94.04901,51.98401,90.22003,107.85501c-36.60803,26.892-61.07001,30.578-95.96399,8.45901
		c-47.382-34.694-85.67702-12.26099-122.48402-0.05801C149.30652,396.13333,124.50052,402.36435,98.38152,376.24234
		L98.38152,376.24234z"/>
	<path class="st0" d="M389.75952,69.22433c20.71899,0,38.69299,11.717,47.69501,28.893h-95.42102
		C351.03552,80.94134,369.03949,69.22433,389.75952,69.22433L389.75952,69.22433z"/>
	<path class="st0" d="M306.9115,45.21834c14.40302,7.773,22.49103,22.691,22.29102,37.981l-66.29999-35.866
		C275.59149,38.78834,292.50952,37.41634,306.9115,45.21834L306.9115,45.21834z"/>
	<path class="st0" d="M362.0675,45.21834c-14.40302,7.773-22.48999,22.691-22.28998,37.981l66.29999-35.866
		C393.38849,38.78834,376.47052,37.41634,362.0675,45.21834L362.0675,45.21834z"/>
	<path class="st0" d="M287.25049,69.22433c20.71899,0,38.72302,11.717,47.69598,28.893h-95.39198
		C248.52751,80.94134,266.53149,69.22433,287.25049,69.22433L287.25049,69.22433z"/>
	<path class="st0" d="M287.07953,115.23534c12.06-11.66,29.09198-14.975,43.97998-10.06l-55.44,53.67
		C271.19049,143.81433,275.04852,126.89534,287.07953,115.23534L287.07953,115.23534z"/>
	<path class="st0" d="M394.70251,115.23534c-12.06-11.66-29.09198-14.975-43.97998-10.06l55.44,53.67
		C410.59253,143.81433,406.7345,126.89534,394.70251,115.23534L394.70251,115.23534z"/>
	<path class="st1" d="M248.98451,281.50534c68.35802-59.61501,88.81902-87.82199,91.33501-190.133
		c20.03198,107.05499,15.26001,123.60199-58.12701,209.48001L248.98451,281.50534z"/>
	<path class="st2" d="M17.96352,375.64233c26.977-5.37201,36.493-5.02899,55.897,18.319
		c18.861,23.86301,43.152,33.40799,74.188,34.09399c39.12199,0.11401,54.52501-26.94901,92.963-27.121
		c39.951,1.60101,51.38301,23.63501,90.47701,32.03699c29.00696,7.23001,55.49799-14.146,89.96295-34.866
		c34.922-20.89099,41.98004-17.94699,60.58502-4.08701"/>
	<path class="st2" d="M72.88952,438.37234c24.834,21.43399,49.84,27.23502,72.87301,28.17801
		c39.952,0.715,59.98401-30.836,93.535-28.40701c55.498,11.43201,84.47597,57.07101,150.40401,16.20401"/>
	<line class="st2" x1="425.79553" y1="434.68634" x2="453.14453" y2="419.39633"/>
	<path class="st3" d="M57.68652,101.48933c-33.551-10.688-14.889-58.271,21.233-37.667
		c-11.146-44.64,67.12899-48.641,55.95501,1.086c28.006-31.951,68.358,16.861,32.29199,36.581H57.68652z"/>
	<path class="st3" d="M147.19252,169.22034c-29.521-11.231,10.287-67.216,48.953-23.20599
		c20.461-23.29199,46.067,14.089,20.49001,23.20599H147.19252z"/>
	<line class="st2" x1="52.85652" y1="418.08133" x2="52.85652" y2="417.88135"/>
</g>
</svg>
